G04 #@! TF.FileFunction,Soldermask,Bot*
%FSLAX46Y46*%
G04 Gerber Fmt 4.6, Leading zero omitted, Abs format (unit mm)*
G04 Created by KiCad (PCBNEW 4.0.4+dfsg1-stable) date Wed Jan 11 18:43:51 2017*
%MOMM*%
%LPD*%
G01*
G04 APERTURE LIST*
%ADD10C,0.100000*%
%ADD11C,2.400000*%
%ADD12C,2.432000*%
%ADD13R,2.432000X2.432000*%
%ADD14O,2.432000X2.432000*%
%ADD15C,4.464000*%
G04 APERTURE END LIST*
D10*
D11*
X87630000Y-77470000D03*
X87630000Y-74930000D03*
X90170000Y-77470000D03*
X90170000Y-74930000D03*
X92710000Y-77470000D03*
X92710000Y-74930000D03*
X100330000Y-77470000D03*
X100330000Y-74930000D03*
X102870000Y-77470000D03*
X102870000Y-74930000D03*
X105410000Y-77470000D03*
X105410000Y-74930000D03*
X100330000Y-87630000D03*
X100330000Y-85090000D03*
X102870000Y-87630000D03*
X102870000Y-85090000D03*
X105410000Y-87630000D03*
X105410000Y-85090000D03*
X85090000Y-59690000D03*
X85090000Y-62230000D03*
X85090000Y-64770000D03*
X85090000Y-67310000D03*
X85090000Y-69850000D03*
X85090000Y-72390000D03*
X85090000Y-74930000D03*
X85090000Y-77470000D03*
X85090000Y-80010000D03*
X85090000Y-82550000D03*
X85090000Y-85090000D03*
X85090000Y-87630000D03*
X85090000Y-90170000D03*
X85090000Y-92710000D03*
X85090000Y-95250000D03*
D12*
X107950000Y-95250000D03*
X107950000Y-92710000D03*
X107950000Y-90170000D03*
X107950000Y-87630000D03*
X107950000Y-85090000D03*
X107950000Y-82550000D03*
X107950000Y-80010000D03*
X107950000Y-77470000D03*
X107950000Y-74930000D03*
X107950000Y-72390000D03*
X107950000Y-69850000D03*
X107950000Y-67310000D03*
X107950000Y-64770000D03*
X107950000Y-62230000D03*
X107950000Y-59690000D03*
D13*
X97790000Y-59690000D03*
D14*
X95250000Y-59690000D03*
D11*
X87630000Y-87630000D03*
X87630000Y-85090000D03*
X90170000Y-87630000D03*
X90170000Y-85090000D03*
X92710000Y-87630000D03*
X92710000Y-85090000D03*
D15*
X109855000Y-52705000D03*
X83185000Y-52705000D03*
X83185000Y-115570000D03*
X109855000Y-115570000D03*
M02*
