G04 #@! TF.FileFunction,Copper,L2,Bot,Signal*
%FSLAX46Y46*%
G04 Gerber Fmt 4.6, Leading zero omitted, Abs format (unit mm)*
G04 Created by KiCad (PCBNEW 4.0.0-2.201512062335+6193~38~ubuntu15.04.1-stable) date lun 18 ene 2016 10:29:21 CET*
%MOMM*%
G01*
G04 APERTURE LIST*
%ADD10C,0.100000*%
%ADD11O,2.032000X1.727200*%
%ADD12R,2.032000X1.727200*%
%ADD13R,2.032000X2.032000*%
%ADD14O,2.032000X2.032000*%
%ADD15C,1.727200*%
%ADD16O,1.727200X1.727200*%
%ADD17R,1.727200X1.727200*%
%ADD18C,1.270000*%
%ADD19C,0.500000*%
G04 APERTURE END LIST*
D10*
D11*
X85090000Y-59690000D03*
X85090000Y-62230000D03*
X85090000Y-64770000D03*
X85090000Y-67310000D03*
X85090000Y-69850000D03*
X85090000Y-72390000D03*
X85090000Y-74930000D03*
X85090000Y-77470000D03*
X85090000Y-80010000D03*
X85090000Y-82550000D03*
X85090000Y-85090000D03*
X85090000Y-87630000D03*
X85090000Y-90170000D03*
X85090000Y-92710000D03*
X85090000Y-95250000D03*
X107950000Y-59690000D03*
X107950000Y-62230000D03*
X107950000Y-64770000D03*
X107950000Y-67310000D03*
X107950000Y-69850000D03*
X107950000Y-72390000D03*
X107950000Y-74930000D03*
X107950000Y-77470000D03*
X107950000Y-80010000D03*
X107950000Y-82550000D03*
X107950000Y-85090000D03*
X107950000Y-87630000D03*
X107950000Y-90170000D03*
D12*
X107950000Y-92710000D03*
X107950000Y-95250000D03*
D13*
X97790000Y-59690000D03*
D14*
X95250000Y-59690000D03*
D15*
X100330000Y-87630000D03*
D16*
X100330000Y-85090000D03*
X102870000Y-87630000D03*
X102870000Y-85090000D03*
D17*
X105410000Y-87630000D03*
X105410000Y-85090000D03*
D15*
X87630000Y-87630000D03*
D16*
X87630000Y-85090000D03*
X90170000Y-87630000D03*
X90170000Y-85090000D03*
D17*
X92710000Y-87630000D03*
X92710000Y-85090000D03*
D15*
X87630000Y-77470000D03*
D16*
X87630000Y-74930000D03*
X90170000Y-77470000D03*
X90170000Y-74930000D03*
D17*
X92710000Y-77470000D03*
X92710000Y-74930000D03*
D15*
X100330000Y-77470000D03*
D16*
X100330000Y-74930000D03*
X102870000Y-77470000D03*
X102870000Y-74930000D03*
D17*
X105410000Y-77470000D03*
X105410000Y-74930000D03*
D18*
X85090000Y-69850000D02*
X86937104Y-69850000D01*
X100330000Y-71120000D02*
X100330000Y-74930000D01*
X96520000Y-67310000D02*
X100330000Y-71120000D01*
X89477104Y-67310000D02*
X96520000Y-67310000D01*
X86937104Y-69850000D02*
X89477104Y-67310000D01*
X85090000Y-72390000D02*
X87630000Y-72390000D01*
X99060000Y-77470000D02*
X100330000Y-77470000D01*
X97790000Y-76200000D02*
X99060000Y-77470000D01*
X97790000Y-72390000D02*
X97790000Y-76200000D01*
X95250000Y-69850000D02*
X97790000Y-72390000D01*
X90170000Y-69850000D02*
X95250000Y-69850000D01*
X87630000Y-72390000D02*
X90170000Y-69850000D01*
X85090000Y-74930000D02*
X87630000Y-74930000D01*
X85090000Y-77470000D02*
X87630000Y-77470000D01*
X85090000Y-85090000D02*
X87630000Y-85090000D01*
X85090000Y-87630000D02*
X87630000Y-87630000D01*
X85090000Y-90170000D02*
X87630000Y-90170000D01*
X99060000Y-85090000D02*
X100330000Y-85090000D01*
X97790000Y-86360000D02*
X99060000Y-85090000D01*
X97790000Y-90170000D02*
X97790000Y-86360000D01*
X95250000Y-92710000D02*
X97790000Y-90170000D01*
X90170000Y-92710000D02*
X95250000Y-92710000D01*
X87630000Y-90170000D02*
X90170000Y-92710000D01*
X85090000Y-92710000D02*
X86360000Y-92710000D01*
X100330000Y-91440000D02*
X100330000Y-87630000D01*
X96520000Y-95250000D02*
X100330000Y-91440000D01*
X88900000Y-95250000D02*
X96520000Y-95250000D01*
X86360000Y-92710000D02*
X88900000Y-95250000D01*
X100330000Y-81280000D02*
X102870000Y-83820000D01*
X102870000Y-83820000D02*
X102870000Y-85090000D01*
X95250000Y-81280000D02*
X100330000Y-81280000D01*
X102870000Y-78740000D02*
X102870000Y-77470000D01*
X100330000Y-81280000D02*
X102870000Y-78740000D01*
X97790000Y-59690000D02*
X97790000Y-64770000D01*
X102870000Y-69850000D02*
X102870000Y-74930000D01*
X97790000Y-64770000D02*
X102870000Y-69850000D01*
X102870000Y-77470000D02*
X102870000Y-74930000D01*
X102870000Y-87630000D02*
X102870000Y-85090000D01*
X102870000Y-87630000D02*
X102870000Y-91440000D01*
X106680000Y-95250000D02*
X107950000Y-95250000D01*
X102870000Y-91440000D02*
X106680000Y-95250000D01*
X90170000Y-85090000D02*
X90170000Y-87630000D01*
X90170000Y-74930000D02*
X90170000Y-77470000D01*
X90170000Y-74930000D02*
X90170000Y-73660000D01*
X90170000Y-88900000D02*
X90170000Y-87630000D01*
X91440000Y-90170000D02*
X90170000Y-88900000D01*
X93980000Y-90170000D02*
X91440000Y-90170000D01*
X95250000Y-88900000D02*
X93980000Y-90170000D01*
X95250000Y-73660000D02*
X95250000Y-81280000D01*
X95250000Y-81280000D02*
X95250000Y-88900000D01*
X93980000Y-72390000D02*
X95250000Y-73660000D01*
X91440000Y-72390000D02*
X93980000Y-72390000D01*
X90170000Y-73660000D02*
X91440000Y-72390000D01*
D19*
G36*
X111510000Y-52173554D02*
X111510000Y-116101446D01*
X110386446Y-117225000D01*
X82653554Y-117225000D01*
X81530000Y-116101446D01*
X81530000Y-64770000D01*
X83022269Y-64770000D01*
X83165041Y-65487761D01*
X83534036Y-66040000D01*
X83165041Y-66592239D01*
X83022269Y-67310000D01*
X83165041Y-68027761D01*
X83534036Y-68580000D01*
X83165041Y-69132239D01*
X83022269Y-69850000D01*
X83165041Y-70567761D01*
X83534036Y-71120000D01*
X83165041Y-71672239D01*
X83022269Y-72390000D01*
X83165041Y-73107761D01*
X83534036Y-73660000D01*
X83165041Y-74212239D01*
X83022269Y-74930000D01*
X83165041Y-75647761D01*
X83534036Y-76200000D01*
X83165041Y-76752239D01*
X83022269Y-77470000D01*
X83165041Y-78187761D01*
X83538643Y-78746896D01*
X83390800Y-78883217D01*
X83077342Y-79560923D01*
X83076840Y-79563415D01*
X83293328Y-79860000D01*
X84940000Y-79860000D01*
X84940000Y-79840000D01*
X85240000Y-79840000D01*
X85240000Y-79860000D01*
X86886672Y-79860000D01*
X87103160Y-79563415D01*
X87102658Y-79560923D01*
X86942923Y-79215570D01*
X87255283Y-79345274D01*
X88001443Y-79345925D01*
X88691054Y-79060983D01*
X88889092Y-78863290D01*
X89452239Y-79239573D01*
X90170000Y-79382345D01*
X90887761Y-79239573D01*
X91115367Y-79087491D01*
X91251623Y-79223747D01*
X91637542Y-79383600D01*
X92297500Y-79383600D01*
X92560000Y-79121100D01*
X92560000Y-77620000D01*
X92540000Y-77620000D01*
X92540000Y-77320000D01*
X92560000Y-77320000D01*
X92560000Y-75080000D01*
X92540000Y-75080000D01*
X92540000Y-74780000D01*
X92560000Y-74780000D01*
X92560000Y-74760000D01*
X92860000Y-74760000D01*
X92860000Y-74780000D01*
X92880000Y-74780000D01*
X92880000Y-75080000D01*
X92860000Y-75080000D01*
X92860000Y-77320000D01*
X92880000Y-77320000D01*
X92880000Y-77620000D01*
X92860000Y-77620000D01*
X92860000Y-79121100D01*
X93122500Y-79383600D01*
X93603000Y-79383600D01*
X93603000Y-83176400D01*
X93122500Y-83176400D01*
X92860000Y-83438900D01*
X92860000Y-84940000D01*
X92880000Y-84940000D01*
X92880000Y-85240000D01*
X92860000Y-85240000D01*
X92860000Y-87480000D01*
X92880000Y-87480000D01*
X92880000Y-87780000D01*
X92860000Y-87780000D01*
X92860000Y-87800000D01*
X92560000Y-87800000D01*
X92560000Y-87780000D01*
X92540000Y-87780000D01*
X92540000Y-87480000D01*
X92560000Y-87480000D01*
X92560000Y-85240000D01*
X92540000Y-85240000D01*
X92540000Y-84940000D01*
X92560000Y-84940000D01*
X92560000Y-83438900D01*
X92297500Y-83176400D01*
X91637542Y-83176400D01*
X91251623Y-83336253D01*
X91115367Y-83472509D01*
X90887761Y-83320427D01*
X90170000Y-83177655D01*
X89452239Y-83320427D01*
X88900000Y-83689422D01*
X88347761Y-83320427D01*
X87630000Y-83177655D01*
X86990120Y-83304936D01*
X87014959Y-83267761D01*
X87157731Y-82550000D01*
X87014959Y-81832239D01*
X86641357Y-81273104D01*
X86789200Y-81136783D01*
X87102658Y-80459077D01*
X87103160Y-80456585D01*
X86886672Y-80160000D01*
X85240000Y-80160000D01*
X85240000Y-80180000D01*
X84940000Y-80180000D01*
X84940000Y-80160000D01*
X83293328Y-80160000D01*
X83076840Y-80456585D01*
X83077342Y-80459077D01*
X83390800Y-81136783D01*
X83538643Y-81273104D01*
X83165041Y-81832239D01*
X83022269Y-82550000D01*
X83165041Y-83267761D01*
X83534036Y-83820000D01*
X83165041Y-84372239D01*
X83022269Y-85090000D01*
X83165041Y-85807761D01*
X83534036Y-86360000D01*
X83165041Y-86912239D01*
X83022269Y-87630000D01*
X83165041Y-88347761D01*
X83534036Y-88900000D01*
X83165041Y-89452239D01*
X83022269Y-90170000D01*
X83165041Y-90887761D01*
X83534036Y-91440000D01*
X83165041Y-91992239D01*
X83022269Y-92710000D01*
X83165041Y-93427761D01*
X83534036Y-93980000D01*
X83165041Y-94532239D01*
X83022269Y-95250000D01*
X83165041Y-95967761D01*
X83571620Y-96576249D01*
X84180108Y-96982828D01*
X84897869Y-97125600D01*
X85282131Y-97125600D01*
X85999892Y-96982828D01*
X86608380Y-96576249D01*
X87014959Y-95967761D01*
X87060351Y-95739561D01*
X87735395Y-96414605D01*
X88269720Y-96771630D01*
X88900000Y-96897000D01*
X96520000Y-96897000D01*
X97150280Y-96771630D01*
X97684605Y-96414605D01*
X101494605Y-92604605D01*
X101600000Y-92446870D01*
X101705395Y-92604605D01*
X105515395Y-96414605D01*
X106049720Y-96771630D01*
X106170280Y-96795611D01*
X106194379Y-96833062D01*
X106532562Y-97064133D01*
X106934000Y-97145426D01*
X108966000Y-97145426D01*
X109341025Y-97074860D01*
X109685462Y-96853221D01*
X109916533Y-96515038D01*
X109997826Y-96113600D01*
X109997826Y-94386400D01*
X109927260Y-94011375D01*
X109923561Y-94005626D01*
X110016000Y-93782458D01*
X110016000Y-93122500D01*
X109753500Y-92860000D01*
X108100000Y-92860000D01*
X108100000Y-92880000D01*
X107800000Y-92880000D01*
X107800000Y-92860000D01*
X107780000Y-92860000D01*
X107780000Y-92560000D01*
X107800000Y-92560000D01*
X107800000Y-92540000D01*
X108100000Y-92540000D01*
X108100000Y-92560000D01*
X109753500Y-92560000D01*
X110016000Y-92297500D01*
X110016000Y-91637542D01*
X109856147Y-91251623D01*
X109721681Y-91117157D01*
X109874959Y-90887761D01*
X110017731Y-90170000D01*
X109874959Y-89452239D01*
X109505964Y-88900000D01*
X109874959Y-88347761D01*
X110017731Y-87630000D01*
X109874959Y-86912239D01*
X109505964Y-86360000D01*
X109874959Y-85807761D01*
X110017731Y-85090000D01*
X109874959Y-84372239D01*
X109501357Y-83813104D01*
X109649200Y-83676783D01*
X109962658Y-82999077D01*
X109963160Y-82996585D01*
X109746672Y-82700000D01*
X108100000Y-82700000D01*
X108100000Y-82720000D01*
X107800000Y-82720000D01*
X107800000Y-82700000D01*
X106153328Y-82700000D01*
X105936840Y-82996585D01*
X105937342Y-82999077D01*
X106019359Y-83176400D01*
X105822500Y-83176400D01*
X105560000Y-83438900D01*
X105560000Y-84940000D01*
X105580000Y-84940000D01*
X105580000Y-85240000D01*
X105560000Y-85240000D01*
X105560000Y-87480000D01*
X105580000Y-87480000D01*
X105580000Y-87780000D01*
X105560000Y-87780000D01*
X105560000Y-89281100D01*
X105822500Y-89543600D01*
X106006868Y-89543600D01*
X105882269Y-90170000D01*
X106025041Y-90887761D01*
X106178319Y-91117157D01*
X106043853Y-91251623D01*
X105884000Y-91637542D01*
X105884000Y-92124790D01*
X104517000Y-90757790D01*
X104517000Y-89543600D01*
X104997500Y-89543600D01*
X105260000Y-89281100D01*
X105260000Y-87780000D01*
X105240000Y-87780000D01*
X105240000Y-87480000D01*
X105260000Y-87480000D01*
X105260000Y-85240000D01*
X105240000Y-85240000D01*
X105240000Y-84940000D01*
X105260000Y-84940000D01*
X105260000Y-83438900D01*
X104997500Y-83176400D01*
X104382730Y-83176400D01*
X104034605Y-82655395D01*
X102659210Y-81280000D01*
X104034605Y-79904605D01*
X104382730Y-79383600D01*
X104997500Y-79383600D01*
X105260000Y-79121100D01*
X105260000Y-77620000D01*
X105240000Y-77620000D01*
X105240000Y-77320000D01*
X105260000Y-77320000D01*
X105260000Y-75080000D01*
X105240000Y-75080000D01*
X105240000Y-74780000D01*
X105260000Y-74780000D01*
X105260000Y-73278900D01*
X105560000Y-73278900D01*
X105560000Y-74780000D01*
X105580000Y-74780000D01*
X105580000Y-75080000D01*
X105560000Y-75080000D01*
X105560000Y-77320000D01*
X105580000Y-77320000D01*
X105580000Y-77620000D01*
X105560000Y-77620000D01*
X105560000Y-79121100D01*
X105822500Y-79383600D01*
X106006868Y-79383600D01*
X105882269Y-80010000D01*
X106025041Y-80727761D01*
X106398643Y-81286896D01*
X106250800Y-81423217D01*
X105937342Y-82100923D01*
X105936840Y-82103415D01*
X106153328Y-82400000D01*
X107800000Y-82400000D01*
X107800000Y-82380000D01*
X108100000Y-82380000D01*
X108100000Y-82400000D01*
X109746672Y-82400000D01*
X109963160Y-82103415D01*
X109962658Y-82100923D01*
X109649200Y-81423217D01*
X109501357Y-81286896D01*
X109874959Y-80727761D01*
X110017731Y-80010000D01*
X109874959Y-79292239D01*
X109505964Y-78740000D01*
X109874959Y-78187761D01*
X110017731Y-77470000D01*
X109874959Y-76752239D01*
X109505964Y-76200000D01*
X109874959Y-75647761D01*
X110017731Y-74930000D01*
X109874959Y-74212239D01*
X109505964Y-73660000D01*
X109874959Y-73107761D01*
X110017731Y-72390000D01*
X109874959Y-71672239D01*
X109505964Y-71120000D01*
X109874959Y-70567761D01*
X110017731Y-69850000D01*
X109874959Y-69132239D01*
X109505964Y-68580000D01*
X109874959Y-68027761D01*
X110017731Y-67310000D01*
X109874959Y-66592239D01*
X109505964Y-66040000D01*
X109874959Y-65487761D01*
X110017731Y-64770000D01*
X109874959Y-64052239D01*
X109505964Y-63500000D01*
X109874959Y-62947761D01*
X110017731Y-62230000D01*
X109874959Y-61512239D01*
X109505964Y-60960000D01*
X109874959Y-60407761D01*
X110017731Y-59690000D01*
X109874959Y-58972239D01*
X109468380Y-58363751D01*
X108859892Y-57957172D01*
X108142131Y-57814400D01*
X107757869Y-57814400D01*
X107040108Y-57957172D01*
X106431620Y-58363751D01*
X106025041Y-58972239D01*
X105882269Y-59690000D01*
X106025041Y-60407761D01*
X106394036Y-60960000D01*
X106025041Y-61512239D01*
X105882269Y-62230000D01*
X106025041Y-62947761D01*
X106394036Y-63500000D01*
X106025041Y-64052239D01*
X105882269Y-64770000D01*
X106025041Y-65487761D01*
X106394036Y-66040000D01*
X106025041Y-66592239D01*
X105882269Y-67310000D01*
X106025041Y-68027761D01*
X106394036Y-68580000D01*
X106025041Y-69132239D01*
X105882269Y-69850000D01*
X106025041Y-70567761D01*
X106394036Y-71120000D01*
X106025041Y-71672239D01*
X105882269Y-72390000D01*
X106006868Y-73016400D01*
X105822500Y-73016400D01*
X105560000Y-73278900D01*
X105260000Y-73278900D01*
X104997500Y-73016400D01*
X104517000Y-73016400D01*
X104517000Y-69850000D01*
X104391630Y-69219720D01*
X104034605Y-68685395D01*
X99437000Y-64087790D01*
X99437000Y-61502545D01*
X99525462Y-61445621D01*
X99756533Y-61107438D01*
X99837826Y-60706000D01*
X99837826Y-58674000D01*
X99767260Y-58298975D01*
X99545621Y-57954538D01*
X99207438Y-57723467D01*
X98806000Y-57642174D01*
X96774000Y-57642174D01*
X96398975Y-57712740D01*
X96165849Y-57862752D01*
X95720494Y-57678286D01*
X95400000Y-57892749D01*
X95400000Y-59540000D01*
X95420000Y-59540000D01*
X95420000Y-59840000D01*
X95400000Y-59840000D01*
X95400000Y-61487251D01*
X95720494Y-61701714D01*
X96143000Y-61526712D01*
X96143000Y-64770000D01*
X96268370Y-65400280D01*
X96443914Y-65663000D01*
X89477104Y-65663000D01*
X88846824Y-65788370D01*
X88312499Y-66145395D01*
X87156099Y-67301795D01*
X87014959Y-66592239D01*
X86645964Y-66040000D01*
X87014959Y-65487761D01*
X87157731Y-64770000D01*
X87014959Y-64052239D01*
X86641357Y-63493104D01*
X86789200Y-63356783D01*
X87102658Y-62679077D01*
X87103160Y-62676585D01*
X86886672Y-62380000D01*
X85240000Y-62380000D01*
X85240000Y-62400000D01*
X84940000Y-62400000D01*
X84940000Y-62380000D01*
X83293328Y-62380000D01*
X83076840Y-62676585D01*
X83077342Y-62679077D01*
X83390800Y-63356783D01*
X83538643Y-63493104D01*
X83165041Y-64052239D01*
X83022269Y-64770000D01*
X81530000Y-64770000D01*
X81530000Y-59690000D01*
X83022269Y-59690000D01*
X83165041Y-60407761D01*
X83538643Y-60966896D01*
X83390800Y-61103217D01*
X83077342Y-61780923D01*
X83076840Y-61783415D01*
X83293328Y-62080000D01*
X84940000Y-62080000D01*
X84940000Y-62060000D01*
X85240000Y-62060000D01*
X85240000Y-62080000D01*
X86886672Y-62080000D01*
X87103160Y-61783415D01*
X87102658Y-61780923D01*
X86789200Y-61103217D01*
X86641357Y-60966896D01*
X87014959Y-60407761D01*
X87064143Y-60160495D01*
X93238278Y-60160495D01*
X93571462Y-60894533D01*
X94160188Y-61445192D01*
X94779506Y-61701714D01*
X95100000Y-61487251D01*
X95100000Y-59840000D01*
X93451944Y-59840000D01*
X93238278Y-60160495D01*
X87064143Y-60160495D01*
X87157731Y-59690000D01*
X87064144Y-59219505D01*
X93238278Y-59219505D01*
X93451944Y-59540000D01*
X95100000Y-59540000D01*
X95100000Y-57892749D01*
X94779506Y-57678286D01*
X94160188Y-57934808D01*
X93571462Y-58485467D01*
X93238278Y-59219505D01*
X87064144Y-59219505D01*
X87014959Y-58972239D01*
X86608380Y-58363751D01*
X85999892Y-57957172D01*
X85282131Y-57814400D01*
X84897869Y-57814400D01*
X84180108Y-57957172D01*
X83571620Y-58363751D01*
X83165041Y-58972239D01*
X83022269Y-59690000D01*
X81530000Y-59690000D01*
X81530000Y-52173554D01*
X82653554Y-51050000D01*
X110386446Y-51050000D01*
X111510000Y-52173554D01*
X111510000Y-52173554D01*
G37*
X111510000Y-52173554D02*
X111510000Y-116101446D01*
X110386446Y-117225000D01*
X82653554Y-117225000D01*
X81530000Y-116101446D01*
X81530000Y-64770000D01*
X83022269Y-64770000D01*
X83165041Y-65487761D01*
X83534036Y-66040000D01*
X83165041Y-66592239D01*
X83022269Y-67310000D01*
X83165041Y-68027761D01*
X83534036Y-68580000D01*
X83165041Y-69132239D01*
X83022269Y-69850000D01*
X83165041Y-70567761D01*
X83534036Y-71120000D01*
X83165041Y-71672239D01*
X83022269Y-72390000D01*
X83165041Y-73107761D01*
X83534036Y-73660000D01*
X83165041Y-74212239D01*
X83022269Y-74930000D01*
X83165041Y-75647761D01*
X83534036Y-76200000D01*
X83165041Y-76752239D01*
X83022269Y-77470000D01*
X83165041Y-78187761D01*
X83538643Y-78746896D01*
X83390800Y-78883217D01*
X83077342Y-79560923D01*
X83076840Y-79563415D01*
X83293328Y-79860000D01*
X84940000Y-79860000D01*
X84940000Y-79840000D01*
X85240000Y-79840000D01*
X85240000Y-79860000D01*
X86886672Y-79860000D01*
X87103160Y-79563415D01*
X87102658Y-79560923D01*
X86942923Y-79215570D01*
X87255283Y-79345274D01*
X88001443Y-79345925D01*
X88691054Y-79060983D01*
X88889092Y-78863290D01*
X89452239Y-79239573D01*
X90170000Y-79382345D01*
X90887761Y-79239573D01*
X91115367Y-79087491D01*
X91251623Y-79223747D01*
X91637542Y-79383600D01*
X92297500Y-79383600D01*
X92560000Y-79121100D01*
X92560000Y-77620000D01*
X92540000Y-77620000D01*
X92540000Y-77320000D01*
X92560000Y-77320000D01*
X92560000Y-75080000D01*
X92540000Y-75080000D01*
X92540000Y-74780000D01*
X92560000Y-74780000D01*
X92560000Y-74760000D01*
X92860000Y-74760000D01*
X92860000Y-74780000D01*
X92880000Y-74780000D01*
X92880000Y-75080000D01*
X92860000Y-75080000D01*
X92860000Y-77320000D01*
X92880000Y-77320000D01*
X92880000Y-77620000D01*
X92860000Y-77620000D01*
X92860000Y-79121100D01*
X93122500Y-79383600D01*
X93603000Y-79383600D01*
X93603000Y-83176400D01*
X93122500Y-83176400D01*
X92860000Y-83438900D01*
X92860000Y-84940000D01*
X92880000Y-84940000D01*
X92880000Y-85240000D01*
X92860000Y-85240000D01*
X92860000Y-87480000D01*
X92880000Y-87480000D01*
X92880000Y-87780000D01*
X92860000Y-87780000D01*
X92860000Y-87800000D01*
X92560000Y-87800000D01*
X92560000Y-87780000D01*
X92540000Y-87780000D01*
X92540000Y-87480000D01*
X92560000Y-87480000D01*
X92560000Y-85240000D01*
X92540000Y-85240000D01*
X92540000Y-84940000D01*
X92560000Y-84940000D01*
X92560000Y-83438900D01*
X92297500Y-83176400D01*
X91637542Y-83176400D01*
X91251623Y-83336253D01*
X91115367Y-83472509D01*
X90887761Y-83320427D01*
X90170000Y-83177655D01*
X89452239Y-83320427D01*
X88900000Y-83689422D01*
X88347761Y-83320427D01*
X87630000Y-83177655D01*
X86990120Y-83304936D01*
X87014959Y-83267761D01*
X87157731Y-82550000D01*
X87014959Y-81832239D01*
X86641357Y-81273104D01*
X86789200Y-81136783D01*
X87102658Y-80459077D01*
X87103160Y-80456585D01*
X86886672Y-80160000D01*
X85240000Y-80160000D01*
X85240000Y-80180000D01*
X84940000Y-80180000D01*
X84940000Y-80160000D01*
X83293328Y-80160000D01*
X83076840Y-80456585D01*
X83077342Y-80459077D01*
X83390800Y-81136783D01*
X83538643Y-81273104D01*
X83165041Y-81832239D01*
X83022269Y-82550000D01*
X83165041Y-83267761D01*
X83534036Y-83820000D01*
X83165041Y-84372239D01*
X83022269Y-85090000D01*
X83165041Y-85807761D01*
X83534036Y-86360000D01*
X83165041Y-86912239D01*
X83022269Y-87630000D01*
X83165041Y-88347761D01*
X83534036Y-88900000D01*
X83165041Y-89452239D01*
X83022269Y-90170000D01*
X83165041Y-90887761D01*
X83534036Y-91440000D01*
X83165041Y-91992239D01*
X83022269Y-92710000D01*
X83165041Y-93427761D01*
X83534036Y-93980000D01*
X83165041Y-94532239D01*
X83022269Y-95250000D01*
X83165041Y-95967761D01*
X83571620Y-96576249D01*
X84180108Y-96982828D01*
X84897869Y-97125600D01*
X85282131Y-97125600D01*
X85999892Y-96982828D01*
X86608380Y-96576249D01*
X87014959Y-95967761D01*
X87060351Y-95739561D01*
X87735395Y-96414605D01*
X88269720Y-96771630D01*
X88900000Y-96897000D01*
X96520000Y-96897000D01*
X97150280Y-96771630D01*
X97684605Y-96414605D01*
X101494605Y-92604605D01*
X101600000Y-92446870D01*
X101705395Y-92604605D01*
X105515395Y-96414605D01*
X106049720Y-96771630D01*
X106170280Y-96795611D01*
X106194379Y-96833062D01*
X106532562Y-97064133D01*
X106934000Y-97145426D01*
X108966000Y-97145426D01*
X109341025Y-97074860D01*
X109685462Y-96853221D01*
X109916533Y-96515038D01*
X109997826Y-96113600D01*
X109997826Y-94386400D01*
X109927260Y-94011375D01*
X109923561Y-94005626D01*
X110016000Y-93782458D01*
X110016000Y-93122500D01*
X109753500Y-92860000D01*
X108100000Y-92860000D01*
X108100000Y-92880000D01*
X107800000Y-92880000D01*
X107800000Y-92860000D01*
X107780000Y-92860000D01*
X107780000Y-92560000D01*
X107800000Y-92560000D01*
X107800000Y-92540000D01*
X108100000Y-92540000D01*
X108100000Y-92560000D01*
X109753500Y-92560000D01*
X110016000Y-92297500D01*
X110016000Y-91637542D01*
X109856147Y-91251623D01*
X109721681Y-91117157D01*
X109874959Y-90887761D01*
X110017731Y-90170000D01*
X109874959Y-89452239D01*
X109505964Y-88900000D01*
X109874959Y-88347761D01*
X110017731Y-87630000D01*
X109874959Y-86912239D01*
X109505964Y-86360000D01*
X109874959Y-85807761D01*
X110017731Y-85090000D01*
X109874959Y-84372239D01*
X109501357Y-83813104D01*
X109649200Y-83676783D01*
X109962658Y-82999077D01*
X109963160Y-82996585D01*
X109746672Y-82700000D01*
X108100000Y-82700000D01*
X108100000Y-82720000D01*
X107800000Y-82720000D01*
X107800000Y-82700000D01*
X106153328Y-82700000D01*
X105936840Y-82996585D01*
X105937342Y-82999077D01*
X106019359Y-83176400D01*
X105822500Y-83176400D01*
X105560000Y-83438900D01*
X105560000Y-84940000D01*
X105580000Y-84940000D01*
X105580000Y-85240000D01*
X105560000Y-85240000D01*
X105560000Y-87480000D01*
X105580000Y-87480000D01*
X105580000Y-87780000D01*
X105560000Y-87780000D01*
X105560000Y-89281100D01*
X105822500Y-89543600D01*
X106006868Y-89543600D01*
X105882269Y-90170000D01*
X106025041Y-90887761D01*
X106178319Y-91117157D01*
X106043853Y-91251623D01*
X105884000Y-91637542D01*
X105884000Y-92124790D01*
X104517000Y-90757790D01*
X104517000Y-89543600D01*
X104997500Y-89543600D01*
X105260000Y-89281100D01*
X105260000Y-87780000D01*
X105240000Y-87780000D01*
X105240000Y-87480000D01*
X105260000Y-87480000D01*
X105260000Y-85240000D01*
X105240000Y-85240000D01*
X105240000Y-84940000D01*
X105260000Y-84940000D01*
X105260000Y-83438900D01*
X104997500Y-83176400D01*
X104382730Y-83176400D01*
X104034605Y-82655395D01*
X102659210Y-81280000D01*
X104034605Y-79904605D01*
X104382730Y-79383600D01*
X104997500Y-79383600D01*
X105260000Y-79121100D01*
X105260000Y-77620000D01*
X105240000Y-77620000D01*
X105240000Y-77320000D01*
X105260000Y-77320000D01*
X105260000Y-75080000D01*
X105240000Y-75080000D01*
X105240000Y-74780000D01*
X105260000Y-74780000D01*
X105260000Y-73278900D01*
X105560000Y-73278900D01*
X105560000Y-74780000D01*
X105580000Y-74780000D01*
X105580000Y-75080000D01*
X105560000Y-75080000D01*
X105560000Y-77320000D01*
X105580000Y-77320000D01*
X105580000Y-77620000D01*
X105560000Y-77620000D01*
X105560000Y-79121100D01*
X105822500Y-79383600D01*
X106006868Y-79383600D01*
X105882269Y-80010000D01*
X106025041Y-80727761D01*
X106398643Y-81286896D01*
X106250800Y-81423217D01*
X105937342Y-82100923D01*
X105936840Y-82103415D01*
X106153328Y-82400000D01*
X107800000Y-82400000D01*
X107800000Y-82380000D01*
X108100000Y-82380000D01*
X108100000Y-82400000D01*
X109746672Y-82400000D01*
X109963160Y-82103415D01*
X109962658Y-82100923D01*
X109649200Y-81423217D01*
X109501357Y-81286896D01*
X109874959Y-80727761D01*
X110017731Y-80010000D01*
X109874959Y-79292239D01*
X109505964Y-78740000D01*
X109874959Y-78187761D01*
X110017731Y-77470000D01*
X109874959Y-76752239D01*
X109505964Y-76200000D01*
X109874959Y-75647761D01*
X110017731Y-74930000D01*
X109874959Y-74212239D01*
X109505964Y-73660000D01*
X109874959Y-73107761D01*
X110017731Y-72390000D01*
X109874959Y-71672239D01*
X109505964Y-71120000D01*
X109874959Y-70567761D01*
X110017731Y-69850000D01*
X109874959Y-69132239D01*
X109505964Y-68580000D01*
X109874959Y-68027761D01*
X110017731Y-67310000D01*
X109874959Y-66592239D01*
X109505964Y-66040000D01*
X109874959Y-65487761D01*
X110017731Y-64770000D01*
X109874959Y-64052239D01*
X109505964Y-63500000D01*
X109874959Y-62947761D01*
X110017731Y-62230000D01*
X109874959Y-61512239D01*
X109505964Y-60960000D01*
X109874959Y-60407761D01*
X110017731Y-59690000D01*
X109874959Y-58972239D01*
X109468380Y-58363751D01*
X108859892Y-57957172D01*
X108142131Y-57814400D01*
X107757869Y-57814400D01*
X107040108Y-57957172D01*
X106431620Y-58363751D01*
X106025041Y-58972239D01*
X105882269Y-59690000D01*
X106025041Y-60407761D01*
X106394036Y-60960000D01*
X106025041Y-61512239D01*
X105882269Y-62230000D01*
X106025041Y-62947761D01*
X106394036Y-63500000D01*
X106025041Y-64052239D01*
X105882269Y-64770000D01*
X106025041Y-65487761D01*
X106394036Y-66040000D01*
X106025041Y-66592239D01*
X105882269Y-67310000D01*
X106025041Y-68027761D01*
X106394036Y-68580000D01*
X106025041Y-69132239D01*
X105882269Y-69850000D01*
X106025041Y-70567761D01*
X106394036Y-71120000D01*
X106025041Y-71672239D01*
X105882269Y-72390000D01*
X106006868Y-73016400D01*
X105822500Y-73016400D01*
X105560000Y-73278900D01*
X105260000Y-73278900D01*
X104997500Y-73016400D01*
X104517000Y-73016400D01*
X104517000Y-69850000D01*
X104391630Y-69219720D01*
X104034605Y-68685395D01*
X99437000Y-64087790D01*
X99437000Y-61502545D01*
X99525462Y-61445621D01*
X99756533Y-61107438D01*
X99837826Y-60706000D01*
X99837826Y-58674000D01*
X99767260Y-58298975D01*
X99545621Y-57954538D01*
X99207438Y-57723467D01*
X98806000Y-57642174D01*
X96774000Y-57642174D01*
X96398975Y-57712740D01*
X96165849Y-57862752D01*
X95720494Y-57678286D01*
X95400000Y-57892749D01*
X95400000Y-59540000D01*
X95420000Y-59540000D01*
X95420000Y-59840000D01*
X95400000Y-59840000D01*
X95400000Y-61487251D01*
X95720494Y-61701714D01*
X96143000Y-61526712D01*
X96143000Y-64770000D01*
X96268370Y-65400280D01*
X96443914Y-65663000D01*
X89477104Y-65663000D01*
X88846824Y-65788370D01*
X88312499Y-66145395D01*
X87156099Y-67301795D01*
X87014959Y-66592239D01*
X86645964Y-66040000D01*
X87014959Y-65487761D01*
X87157731Y-64770000D01*
X87014959Y-64052239D01*
X86641357Y-63493104D01*
X86789200Y-63356783D01*
X87102658Y-62679077D01*
X87103160Y-62676585D01*
X86886672Y-62380000D01*
X85240000Y-62380000D01*
X85240000Y-62400000D01*
X84940000Y-62400000D01*
X84940000Y-62380000D01*
X83293328Y-62380000D01*
X83076840Y-62676585D01*
X83077342Y-62679077D01*
X83390800Y-63356783D01*
X83538643Y-63493104D01*
X83165041Y-64052239D01*
X83022269Y-64770000D01*
X81530000Y-64770000D01*
X81530000Y-59690000D01*
X83022269Y-59690000D01*
X83165041Y-60407761D01*
X83538643Y-60966896D01*
X83390800Y-61103217D01*
X83077342Y-61780923D01*
X83076840Y-61783415D01*
X83293328Y-62080000D01*
X84940000Y-62080000D01*
X84940000Y-62060000D01*
X85240000Y-62060000D01*
X85240000Y-62080000D01*
X86886672Y-62080000D01*
X87103160Y-61783415D01*
X87102658Y-61780923D01*
X86789200Y-61103217D01*
X86641357Y-60966896D01*
X87014959Y-60407761D01*
X87064143Y-60160495D01*
X93238278Y-60160495D01*
X93571462Y-60894533D01*
X94160188Y-61445192D01*
X94779506Y-61701714D01*
X95100000Y-61487251D01*
X95100000Y-59840000D01*
X93451944Y-59840000D01*
X93238278Y-60160495D01*
X87064143Y-60160495D01*
X87157731Y-59690000D01*
X87064144Y-59219505D01*
X93238278Y-59219505D01*
X93451944Y-59540000D01*
X95100000Y-59540000D01*
X95100000Y-57892749D01*
X94779506Y-57678286D01*
X94160188Y-57934808D01*
X93571462Y-58485467D01*
X93238278Y-59219505D01*
X87064144Y-59219505D01*
X87014959Y-58972239D01*
X86608380Y-58363751D01*
X85999892Y-57957172D01*
X85282131Y-57814400D01*
X84897869Y-57814400D01*
X84180108Y-57957172D01*
X83571620Y-58363751D01*
X83165041Y-58972239D01*
X83022269Y-59690000D01*
X81530000Y-59690000D01*
X81530000Y-52173554D01*
X82653554Y-51050000D01*
X110386446Y-51050000D01*
X111510000Y-52173554D01*
M02*
